<?xml version="1.0" encoding="UTF-8"?>
<svg width="24px" height="24px" viewBox="0 0 24 24" version="1.1" xmlns="http://www.w3.org/2000/svg" xmlns:xlink="http://www.w3.org/1999/xlink">
    <!-- Generator: Sketch 48.2 (47327) - http://www.bohemiancoding.com/sketch -->
    <title>a1</title>
    <desc>Created with Sketch.</desc>
    <defs></defs>
    <g id="Page-1" stroke="none" stroke-width="1" fill="none" fill-rule="evenodd">
        <g id="a1">
            <g id="Page-1" transform="translate(4.000000, 7.000000)">
                <path d="M1.829,0.74985 C1.603,0.74985 1.457,0.99185 1.573,1.18685 C2.09,2.06185 2.52,3.28885 2.52,4.94685 C2.52,6.60585 2.09,7.83285 1.573,8.70785 C1.457,8.90285 1.603,9.14485 1.829,9.14485 L8.156,9.14485 L14.482,9.14485 C14.708,9.14485 14.854,8.90285 14.739,8.70785 C14.221,7.83285 13.791,6.60585 13.791,4.94685 C13.791,3.28885 14.221,2.06185 14.739,1.18685 C14.854,0.99185 14.708,0.74985 14.482,0.74985 L8.156,0.74985 L1.829,0.74985 Z" id="Fill-1" fill="#FFFFFF"></path>
                <path d="M13.7914,4.94715 C13.7914,6.60615 14.2214,7.83215 14.7394,8.70815 C14.8534,8.90315 14.7084,9.14415 14.4824,9.14415 L8.1554,9.14415 L1.8294,9.14415 C1.6034,9.14415 1.4574,8.90315 1.5724,8.70815 C2.0904,7.83215 2.5204,6.60615 2.5204,4.94715 C2.5204,3.28815 2.0904,2.06215 1.5724,1.18615 C1.4574,0.99215 1.6034,0.75015 1.8294,0.75015 L8.1554,0.75015 L14.4824,0.75015 C14.7084,0.75015 14.8534,0.99215 14.7384,1.18615 C14.2214,2.06215 13.7914,3.28815 13.7914,4.94715 M16.2204,0.50415 C16.4124,0.31915 16.2804,0.00015 16.0134,0.00015 L8.1554,0.00015 L0.2974,0.00015 C0.0314,0.00015 -0.1006,0.31915 0.0904,0.50415 C0.7784,1.16715 1.7704,2.54015 1.7704,4.94715 C1.7704,7.35415 0.7784,8.72715 0.0904,9.39015 C-0.1006,9.57515 0.0314,9.89415 0.2974,9.89415 L8.1554,9.89415 L16.0134,9.89415 C16.2804,9.89415 16.4124,9.57515 16.2204,9.39015 C15.5324,8.72715 14.5414,7.35415 14.5414,4.94715 C14.5414,2.54015 15.5324,1.16715 16.2204,0.50415" id="Fill-3" fill="#C8C8C8"></path>
            </g>
        </g>
    </g>
</svg>