<?xml version="1.0" encoding="UTF-8"?>
<svg width="24px" height="24px" viewBox="0 0 24 24" version="1.1" xmlns="http://www.w3.org/2000/svg" xmlns:xlink="http://www.w3.org/1999/xlink">
    <!-- Generator: Sketch 48.2 (47327) - http://www.bohemiancoding.com/sketch -->
    <title>a2</title>
    <desc>Created with Sketch.</desc>
    <defs></defs>
    <g id="Page-1" stroke="none" stroke-width="1" fill="none" fill-rule="evenodd">
        <g id="a2">
            <g id="Page-1" transform="translate(4.000000, 4.000000)">
                <path d="M7.6069,0.8961 L2.5289,3.7291 C2.3269,3.8421 2.3269,4.1321 2.5289,4.2451 L7.6069,7.0781 C7.6969,7.1281 7.8049,7.1281 7.8949,7.0781 L12.9739,4.2451 C13.1759,4.1321 13.1759,3.8421 12.9739,3.7291 L7.8949,0.8961 C7.8049,0.8461 7.6969,0.8461 7.6069,0.8961" id="Fill-1" fill="#FFFFFF"></path>
                <path d="M6.3491,9.2394 L1.1901,6.3614 C0.9931,6.2514 0.7491,6.3934 0.7491,6.6194 L0.7491,12.2844 C0.7491,12.3924 0.8081,12.4904 0.9021,12.5434 L6.0611,15.4214 C6.2581,15.5314 6.5011,15.3884 6.5011,15.1634 L6.5011,9.4974 C6.5011,9.3904 6.4431,9.2914 6.3491,9.2394" id="Fill-5" fill="#FFFFFF"></path>
                <path d="M9.4409,15.4215 L14.6009,12.5435 C14.6949,12.4905 14.7529,12.3925 14.7529,12.2845 L14.7529,6.6195 C14.7529,6.3935 14.5099,6.2515 14.3129,6.3605 L9.1529,9.2395 C9.0589,9.2915 9.0019,9.3905 9.0019,9.4975 L9.0019,15.1635 C9.0019,15.3895 9.2439,15.5315 9.4409,15.4215" id="Fill-10" fill="#FFFFFF"></path>
                <path d="M2.5288,3.7291 L7.6068,0.8961 C7.6968,0.8461 7.8048,0.8461 7.8948,0.8961 L12.9738,3.7291 C13.1758,3.8421 13.1758,4.1321 12.9738,4.2451 L7.8948,7.0781 C7.8048,7.1281 7.6968,7.1281 7.6068,7.0781 L2.5288,4.2451 C2.3268,4.1321 2.3268,3.8421 2.5288,3.7291 M7.6068,0.0371 L0.9888,3.7291 C0.7868,3.8421 0.7868,4.1331 0.9888,4.2451 L7.6068,7.9371 C7.6968,7.9871 7.8048,7.9871 7.8948,7.9371 L14.5138,4.2451 C14.7168,4.1331 14.7168,3.8421 14.5138,3.7291 L7.8948,0.0371 C7.8048,-0.0129 7.6968,-0.0129 7.6068,0.0371" id="Fill-3" fill="#C8C8C8"></path>
                <path d="M1.1899,6.3609 L6.3489,9.2389 C6.4429,9.2919 6.5019,9.3899 6.5019,9.4969 L6.5019,15.1629 C6.5019,15.3889 6.2579,15.5309 6.0609,15.4219 L0.9019,12.5429 C0.8079,12.4909 0.7499,12.3919 0.7499,12.2849 L0.7499,6.6189 C0.7499,6.3939 0.9929,6.2509 1.1899,6.3609 M0.1519,12.9839 L6.8109,16.6989 C7.0079,16.8089 7.2519,16.6659 7.2519,16.4409 L7.2519,9.0569 C7.2519,8.9499 7.1929,8.8509 7.0989,8.7989 L0.4399,5.0839 C0.2429,4.9739 -0.0001,5.1169 -0.0001,5.3419 L-0.0001,12.7249 C-0.0001,12.8329 0.0579,12.9309 0.1519,12.9839" id="Fill-7" fill="#C8C8C8"></path>
                <path d="M14.6011,12.5431 L9.4411,15.4211 C9.2441,15.5311 9.0011,15.3891 9.0011,15.1641 L9.0011,9.4971 C9.0011,9.3901 9.0591,9.2921 9.1531,9.2391 L14.3131,6.3611 C14.5101,6.2511 14.7531,6.3941 14.7531,6.6191 L14.7531,12.2851 C14.7531,12.3921 14.6951,12.4911 14.6011,12.5431 M8.2511,9.0571 L8.2511,16.4401 C8.2511,16.6661 8.4941,16.8091 8.6911,16.6991 L15.3511,12.9831 C15.4451,12.9311 15.5031,12.8331 15.5031,12.7251 L15.5031,5.3421 C15.5031,5.1171 15.2601,4.9741 15.0631,5.0841 L8.4031,8.7991 C8.3091,8.8511 8.2511,8.9501 8.2511,9.0571" id="Fill-12" fill="#C8C8C8"></path>
            </g>
        </g>
    </g>
</svg>