<?xml version="1.0" encoding="UTF-8"?>
<svg width="38px" height="38px" viewBox="0 0 38 38" version="1.1" xmlns="http://www.w3.org/2000/svg" xmlns:xlink="http://www.w3.org/1999/xlink">
    <!-- Generator: Sketch 50.2 (55047) - http://www.bohemiancoding.com/sketch -->
    <title>a3</title>
    <desc>Created with Sketch.</desc>
    <defs>
        <polygon id="path-1" points="0 0.3052 36 0.3052 36 19 0 19"></polygon>
    </defs>
    <g id="a3" stroke="none" stroke-width="1" fill="none" fill-rule="evenodd">
        <g id="Group-11" transform="translate(1.000000, 6.000000)">
            <g id="Group-4" transform="translate(0.000000, 12.000000)">
                <mask id="mask-2" fill="white">
                    <use xlink:href="#path-1"></use>
                </mask>
                <g id="Clip-3"></g>
                <path d="M27.626,12.5342 C26.034,12.5342 24.744,11.2442 24.744,9.6522 C24.744,8.0602 26.034,6.7692 27.626,6.7692 C29.218,6.7692 30.509,8.0602 30.509,9.6522 C30.509,11.2442 29.218,12.5342 27.626,12.5342 M8.374,12.5342 C6.782,12.5342 5.491,11.2442 5.491,9.6522 C5.491,8.0602 6.782,6.7692 8.374,6.7692 C9.965,6.7692 11.256,8.0602 11.256,9.6522 C11.256,11.2442 9.965,12.5342 8.374,12.5342 M35.929,14.0542 C35.348,10.7472 33.917,2.8112 33.917,2.8112 C33.917,2.8112 33.331,0.3052 29.988,0.3052 L18.007,0.3052 L18,0.3052 L17.993,0.3052 L6.012,0.3052 C2.669,0.3052 2.083,2.8112 2.083,2.8112 C2.083,2.8112 0.652,10.7472 0.071,14.0542 C-0.51,17.3612 2.652,17.6762 2.652,17.6762 C2.652,17.6762 9.294,18.5832 11.596,18.9522 C13.897,19.3202 14.709,17.4592 14.709,17.4592 C14.709,17.4592 15.479,15.6582 16.034,14.3592 C16.59,13.0602 17.993,13.1962 17.993,13.1962 L18,13.1962 L18.007,13.1962 C18.007,13.1962 19.409,13.0602 19.966,14.3592 C20.522,15.6582 21.291,17.4592 21.291,17.4592 C21.291,17.4592 22.104,19.3202 24.404,18.9522 C26.705,18.5832 33.348,17.6762 33.348,17.6762 C33.348,17.6762 36.51,17.3612 35.929,14.0542" id="Fill-2" fill="#FFFFFF" mask="url(#mask-2)"></path>
            </g>
            <path d="M17.2505,4.5537 C17.2505,4.7497 17.2815,4.9127 17.3445,5.0417 C17.4615,5.2797 17.6755,5.3987 17.9845,5.3987 C18.1745,5.3987 18.3395,5.3337 18.4805,5.2027 C18.6215,5.0737 18.6925,4.8857 18.6925,4.6417 C18.6925,4.3177 18.5615,4.1017 18.3005,3.9937 C18.1515,3.9317 17.9165,3.9017 17.5965,3.9017 L17.5965,3.2097 C17.9095,3.2047 18.1285,3.1747 18.2525,3.1177 C18.4665,3.0227 18.5735,2.8307 18.5735,2.5407 C18.5735,2.3527 18.5195,2.1997 18.4095,2.0827 C18.3005,1.9657 18.1465,1.9067 17.9475,1.9067 C17.7195,1.9067 17.5515,1.9787 17.4455,2.1237 C17.3375,2.2687 17.2865,2.4617 17.2915,2.7037 L16.3885,2.7037 C16.3965,2.4597 16.4395,2.2277 16.5135,2.0087 C16.5925,1.8157 16.7165,1.6377 16.8865,1.4757 C17.0125,1.3597 17.1635,1.2717 17.3375,1.2107 C17.5115,1.1497 17.7255,1.1187 17.9785,1.1187 C18.4485,1.1187 18.8275,1.2407 19.1155,1.4837 C19.4035,1.7267 19.5475,2.0537 19.5475,2.4627 C19.5475,2.7527 19.4615,2.9967 19.2905,3.1957 C19.1805,3.3207 19.0685,3.4057 18.9505,3.4497 C19.0395,3.4497 19.1655,3.5267 19.3315,3.6777 C19.5775,3.9067 19.7005,4.2187 19.7005,4.6147 C19.7005,5.0307 19.5565,5.3967 19.2685,5.7117 C18.9795,6.0277 18.5535,6.1857 17.9885,6.1857 C17.2925,6.1857 16.8085,5.9587 16.5375,5.5037 C16.3955,5.2617 16.3155,4.9447 16.3005,4.5537 L17.2505,4.5537 Z" id="Fill-5" fill="#FFFFFF"></path>
            <path d="M13.7959,6.48 C13.7579,6.48 13.7199,6.476 13.6819,6.466 C11.2429,5.878 9.8449,4.824 9.8449,3.576 C9.8449,2.379 11.1509,1.349 13.4279,0.749 L13.6959,0.681 C13.9549,0.618 14.2179,0.777 14.2819,1.037 C14.3449,1.297 14.1859,1.559 13.9249,1.622 L13.6739,1.686 C11.9369,2.143 10.8139,2.886 10.8139,3.576 C10.8139,4.294 12.0579,5.078 13.9089,5.525 C14.1689,5.588 14.3289,5.85 14.2659,6.109 C14.2129,6.331 14.0139,6.48 13.7959,6.48" id="Fill-7" fill="#FFFFFF"></path>
            <path d="M26.1553,3.2793 C26.1553,2.0303 24.7573,0.9773 22.3193,0.3883 C22.0643,0.3233 21.7983,0.4853 21.7353,0.7453 C21.6723,1.0053 21.8323,1.2673 22.0923,1.3293 C23.9433,1.7773 25.1873,2.5603 25.1873,3.2793 C25.1873,3.8873 24.3143,4.5353 22.9193,4.9933 L23.3353,4.4263 C23.4933,4.2113 23.4473,3.9083 23.2313,3.7503 C23.0143,3.5913 22.7123,3.6383 22.5543,3.8533 L21.3333,5.5173 C21.2413,5.6423 21.2153,5.8033 21.2613,5.9513 C21.3083,6.0983 21.4243,6.2153 21.5703,6.2633 L23.5053,6.9053 C23.5553,6.9223 23.6073,6.9303 23.6573,6.9303 C23.8603,6.9303 24.0503,6.8013 24.1173,6.5993 C24.2013,6.3443 24.0633,6.0713 23.8103,5.9863 L23.4043,5.8523 C25.1643,5.2373 26.1553,4.3213 26.1553,3.2793" id="Fill-9" fill="#FFFFFF"></path>
        </g>
    </g>
</svg>