<?xml version="1.0" encoding="UTF-8"?>
<svg width="38px" height="38px" viewBox="0 0 38 38" version="1.1" xmlns="http://www.w3.org/2000/svg" xmlns:xlink="http://www.w3.org/1999/xlink">
    <!-- Generator: Sketch 50.2 (55047) - http://www.bohemiancoding.com/sketch -->
    <title>a3-6</title>
    <desc>Created with Sketch.</desc>
    <defs>
        <polygon id="path-1" points="0 0.3052 36 0.3052 36 19 0 19"></polygon>
    </defs>
    <g id="a3-6" stroke="none" stroke-width="1" fill="none" fill-rule="evenodd">
        <g id="Group-15" transform="translate(1.000000, 1.000000)">
            <g id="Group-4" transform="translate(0.000000, 17.000000)">
                <mask id="mask-2" fill="white">
                    <use xlink:href="#path-1"></use>
                </mask>
                <g id="Clip-3"></g>
                <path d="M27.626,12.5342 C26.034,12.5342 24.744,11.2442 24.744,9.6522 C24.744,8.0602 26.034,6.7692 27.626,6.7692 C29.218,6.7692 30.509,8.0602 30.509,9.6522 C30.509,11.2442 29.218,12.5342 27.626,12.5342 M8.374,12.5342 C6.782,12.5342 5.491,11.2442 5.491,9.6522 C5.491,8.0602 6.782,6.7692 8.374,6.7692 C9.966,6.7692 11.256,8.0602 11.256,9.6522 C11.256,11.2442 9.966,12.5342 8.374,12.5342 M35.929,14.0542 C35.348,10.7472 33.917,2.8112 33.917,2.8112 C33.917,2.8112 33.331,0.3052 29.988,0.3052 L18.008,0.3052 L18,0.3052 L17.992,0.3052 L6.012,0.3052 C2.669,0.3052 2.083,2.8112 2.083,2.8112 C2.083,2.8112 0.652,10.7472 0.071,14.0542 C-0.51,17.3612 2.652,17.6762 2.652,17.6762 C2.652,17.6762 9.295,18.5832 11.596,18.9522 C13.897,19.3202 14.709,17.4592 14.709,17.4592 C14.709,17.4592 15.479,15.6582 16.034,14.3592 C16.591,13.0602 17.992,13.1962 17.992,13.1962 L18,13.1962 L18.008,13.1962 C18.008,13.1962 19.409,13.0602 19.966,14.3592 C20.522,15.6582 21.291,17.4592 21.291,17.4592 C21.291,17.4592 22.104,19.3202 24.404,18.9522 C26.705,18.5832 33.348,17.6762 33.348,17.6762 C33.348,17.6762 36.51,17.3612 35.929,14.0542" id="Fill-2" fill="#FFFFFF" mask="url(#mask-2)"></path>
            </g>
            <path d="M17.4844,10.1626 C17.6274,10.3296 17.8074,10.4136 18.0274,10.4136 C18.2424,10.4136 18.4114,10.3326 18.5344,10.1706 C18.6574,10.0096 18.7194,9.7996 18.7194,9.5416 C18.7194,9.2536 18.6494,9.0346 18.5084,8.8816 C18.3684,8.7286 18.1974,8.6526 17.9934,8.6526 C17.8284,8.6526 17.6814,8.7026 17.5554,8.8016 C17.3654,8.9486 17.2704,9.1866 17.2704,9.5146 C17.2704,9.7786 17.3414,9.9956 17.4844,10.1626 Z M18.6304,7.3896 C18.6304,7.3106 18.6004,7.2236 18.5394,7.1286 C18.4354,6.9746 18.2784,6.8976 18.0674,6.8976 C17.7534,6.8976 17.5294,7.0746 17.3954,7.4276 C17.3234,7.6216 17.2734,7.9096 17.2464,8.2886 C17.3664,8.1466 17.5054,8.0426 17.6644,7.9766 C17.8224,7.9116 18.0044,7.8786 18.2074,7.8786 C18.6434,7.8786 19.0014,8.0266 19.2814,8.3226 C19.5604,8.6196 19.7004,8.9976 19.7004,9.4596 C19.7004,9.9196 19.5634,10.3246 19.2894,10.6746 C19.0154,11.0256 18.5904,11.2016 18.0134,11.2016 C17.3934,11.2016 16.9364,10.9416 16.6424,10.4236 C16.4144,10.0186 16.2994,9.4956 16.2994,8.8556 C16.2994,8.4806 16.3154,8.1746 16.3474,7.9396 C16.4034,7.5216 16.5134,7.1726 16.6764,6.8936 C16.8164,6.6566 17.0014,6.4656 17.2274,6.3216 C17.4554,6.1756 17.7274,6.1036 18.0444,6.1036 C18.5014,6.1036 18.8654,6.2206 19.1364,6.4546 C19.4084,6.6886 19.5604,7.0006 19.5944,7.3896 L18.6304,7.3896 Z" id="Fill-5" fill="#FFFFFF"></path>
            <path d="M22.3184,5.6133 C22.0634,5.5503 21.7974,5.7103 21.7344,5.9703 C21.6724,6.2303 21.8324,6.4913 22.0914,6.5543 C23.9434,7.0013 25.1864,7.7853 25.1864,8.5043 C25.1864,9.1953 24.0634,9.9373 22.3234,10.3953 L22.0774,10.4573 C21.8174,10.5193 21.6564,10.7803 21.7184,11.0403 C21.7714,11.2623 21.9704,11.4123 22.1894,11.4123 C22.2264,11.4123 22.2634,11.4083 22.3014,11.3993 L22.5714,11.3313 C24.8494,10.7313 26.1554,9.7003 26.1554,8.5043 C26.1554,7.2553 24.7564,6.2023 22.3184,5.6133" id="Fill-7" fill="#FFFFFF"></path>
            <path d="M14.4307,5.8164 L12.4957,5.1744 C12.2427,5.0904 11.9677,5.2274 11.8827,5.4814 C11.7987,5.7354 11.9367,6.0094 12.1907,6.0934 L12.5957,6.2284 C10.8367,6.8434 9.8447,7.7584 9.8447,8.8004 C9.8447,10.0494 11.2427,11.1034 13.6817,11.6914 C13.7197,11.7014 13.7577,11.7054 13.7957,11.7054 C14.0137,11.7054 14.2117,11.5564 14.2657,11.3354 C14.3287,11.0754 14.1687,10.8134 13.9097,10.7514 C12.0577,10.3034 10.8137,9.5204 10.8137,8.8004 C10.8137,8.1924 11.6857,7.5454 13.0817,7.0864 L12.6657,7.6524 C12.5077,7.8684 12.5537,8.1714 12.7697,8.3294 C12.8557,8.3934 12.9557,8.4234 13.0557,8.4234 C13.2037,8.4234 13.3517,8.3554 13.4467,8.2264 L14.6677,6.5624 C14.7597,6.4384 14.7857,6.2764 14.7397,6.1284 C14.6917,5.9814 14.5767,5.8654 14.4307,5.8164" id="Fill-9" fill="#FFFFFF"></path>
            <path d="M20.3896,12.3872 C20.1356,12.3232 19.8686,12.4842 19.8056,12.7442 C19.3586,14.5952 18.5746,15.8392 17.8556,15.8392 C17.1646,15.8392 16.4226,14.7162 15.9656,12.9782 L15.9026,12.7272 C15.8386,12.4682 15.5756,12.3052 15.3176,12.3712 C15.0566,12.4342 14.8976,12.6962 14.9606,12.9562 L15.0286,13.2242 C15.6276,15.5012 16.6586,16.8072 17.8556,16.8072 C19.1036,16.8072 20.1576,15.4092 20.7456,12.9712 C20.8096,12.7112 20.6496,12.4492 20.3896,12.3872" id="Fill-11" fill="#FFFFFF"></path>
            <path d="M21.4648,2.5356 C21.2118,2.4516 20.9368,2.5886 20.8528,2.8426 L20.7178,3.2486 C20.1028,1.4886 19.1868,0.4966 18.1448,0.4966 C16.8968,0.4966 15.8428,1.8946 15.2538,4.3336 C15.1918,4.5936 15.3508,4.8556 15.6108,4.9176 C15.8668,4.9836 16.1328,4.8216 16.1948,4.5606 C16.6428,2.7096 17.4258,1.4656 18.1448,1.4656 C18.7528,1.4656 19.4008,2.3386 19.8598,3.7346 L19.2928,3.3186 C19.0758,3.1596 18.7738,3.2066 18.6158,3.4216 C18.4578,3.6376 18.5038,3.9406 18.7198,4.0986 L20.3828,5.3196 C20.4678,5.3816 20.5688,5.4136 20.6698,5.4136 C20.7188,5.4136 20.7688,5.4066 20.8168,5.3916 C20.9648,5.3446 21.0808,5.2286 21.1298,5.0826 L21.7718,3.1476 C21.8558,2.8936 21.7178,2.6196 21.4648,2.5356" id="Fill-13" fill="#FFFFFF"></path>
        </g>
    </g>
</svg>