<?xml version="1.0" encoding="UTF-8"?>
<svg width="38px" height="38px" viewBox="0 0 38 38" version="1.1" xmlns="http://www.w3.org/2000/svg" xmlns:xlink="http://www.w3.org/1999/xlink">
    <!-- Generator: Sketch 50.2 (55047) - http://www.bohemiancoding.com/sketch -->
    <title>a6</title>
    <desc>Created with Sketch.</desc>
    <defs>
        <polygon id="path-1" points="0 0.000400494635 25.1594101 0.000400494635 25.1594101 36 0 36"></polygon>
        <polygon id="path-3" points="0.549817681 0.791979482 5 0.791979482 5 6.6047 0.549817681 6.6047"></polygon>
        <polygon id="path-5" points="0.791623793 0.548411739 6.60449911 0.548411739 6.60449911 5 0.791623793 5"></polygon>
    </defs>
    <g id="a6" stroke="none" stroke-width="1" fill="none" fill-rule="evenodd">
        <g id="Group-17" transform="translate(1.000000, 1.000000)">
            <g id="Group-4">
                <mask id="mask-2" fill="white">
                    <use xlink:href="#path-1"></use>
                </mask>
                <g id="Clip-3"></g>
                <path d="M12.1719,14.8921 C12.1719,16.4181 10.9299,17.6611 9.4029,17.6611 C7.8779,17.6611 6.6359,16.4181 6.6359,14.8921 C6.6359,13.3661 7.8779,12.1241 9.4029,12.1241 C10.9299,12.1241 12.1719,13.3661 12.1719,14.8921 M16.3459,16.0411 C16.3459,16.7401 15.7769,17.3081 15.0779,17.3081 C14.3789,17.3081 13.8099,16.7401 13.8099,16.0411 C13.8099,15.3421 14.3789,14.7731 15.0779,14.7731 C15.7769,14.7731 16.3459,15.3421 16.3459,16.0411 M24.8539,6.2601 C24.5869,6.1391 12.4059,2.7911 0.6519,0.0261 C0.5829,0.0081 0.3429,-0.0459 0.1609,0.0911 C0.0579,0.1701 -0.0001,0.2911 -0.0001,0.4311 C-0.0001,0.4661 0.0689,4.0611 0.7639,5.7091 C0.7799,5.7561 0.9409,6.1681 1.3309,6.2771 C1.5669,6.3431 7.1079,7.7871 8.4309,8.1311 L8.0249,9.6911 C7.5649,9.7851 6.3769,10.1161 5.4709,11.1291 C4.3549,12.3761 4.2339,13.6621 4.2289,13.7441 L4.4999,33.2781 C4.4989,33.3491 4.4909,34.9881 5.7509,35.4491 C6.5179,35.7281 8.1609,36.0001 9.6219,36.0001 C10.3849,36.0001 11.0979,35.9271 11.6099,35.7401 C11.6369,35.7301 12.2799,35.4811 12.3629,34.5871 C12.4319,33.8511 12.2889,23.7201 12.2829,23.3001 L12.3499,20.7261 C12.3539,20.5761 12.4749,20.4581 12.6249,20.4581 L14.2249,20.4581 C14.3119,20.4641 16.4249,20.5711 17.9979,18.5451 C18.7599,17.5631 19.0459,16.2081 18.7829,14.8291 C18.5629,13.6701 17.9789,12.6841 17.2049,12.1431 L17.5779,10.5531 L20.8549,11.3491 C21.0639,11.4061 21.5069,11.4231 21.8309,11.1321 C21.8529,11.1121 24.0089,9.1581 25.1489,6.8341 C25.1899,6.6421 25.1149,6.3791 24.8539,6.2601" id="Fill-2" fill="#FFFFFF" mask="url(#mask-2)"></path>
            </g>
            <path d="M27.3291,29.3545 C27.4721,29.5225 27.6521,29.6055 27.8721,29.6055 C28.0871,29.6055 28.2561,29.5255 28.3791,29.3635 C28.5021,29.2015 28.5641,28.9915 28.5641,28.7335 C28.5641,28.4465 28.4931,28.2265 28.3531,28.0735 C28.2131,27.9205 28.0421,27.8445 27.8381,27.8445 C27.6731,27.8445 27.5261,27.8945 27.3991,27.9945 C27.2101,28.1405 27.1151,28.3785 27.1151,28.7065 C27.1151,28.9715 27.1861,29.1875 27.3291,29.3545 Z M28.4751,26.5825 C28.4751,26.5025 28.4451,26.4165 28.3841,26.3205 C28.2801,26.1665 28.1231,26.0905 27.9121,26.0905 C27.5981,26.0905 27.3741,26.2665 27.2401,26.6195 C27.1681,26.8135 27.1181,27.1015 27.0911,27.4815 C27.2111,27.3385 27.3501,27.2345 27.5091,27.1685 C27.6671,27.1035 27.8481,27.0705 28.0521,27.0705 C28.4881,27.0705 28.8461,27.2185 29.1251,27.5155 C29.4051,27.8115 29.5451,28.1905 29.5451,28.6525 C29.5451,29.1115 29.4081,29.5165 29.1341,29.8675 C28.8601,30.2175 28.4341,30.3935 27.8581,30.3935 C27.2381,30.3935 26.7811,30.1335 26.4871,29.6165 C26.2591,29.2105 26.1441,28.6885 26.1441,28.0475 C26.1441,27.6725 26.1601,27.3675 26.1921,27.1315 C26.2481,26.7135 26.3581,26.3655 26.5211,26.0865 C26.6611,25.8495 26.8451,25.6585 27.0721,25.5135 C27.3001,25.3685 27.5721,25.2955 27.8891,25.2955 C28.3461,25.2955 28.7101,25.4135 28.9811,25.6475 C29.2531,25.8805 29.4051,26.1935 29.4391,26.5825 L28.4751,26.5825 Z" id="Fill-5" fill="#FFFFFF"></path>
            <g id="Group-9" transform="translate(31.000000, 24.000000)">
                <mask id="mask-4" fill="white">
                    <use xlink:href="#path-3"></use>
                </mask>
                <g id="Clip-8"></g>
                <path d="M1.1631,0.8057 C0.9081,0.7427 0.6421,0.9027 0.5791,1.1617 C0.5171,1.4217 0.6761,1.6847 0.9361,1.7457 C2.7881,2.1947 4.0311,2.9777 4.0311,3.6967 C4.0311,4.3877 2.9081,5.1287 1.1681,5.5877 L0.9221,5.6497 C0.6621,5.7107 0.5011,5.9727 0.5631,6.2327 C0.6161,6.4547 0.8141,6.6047 1.0341,6.6047 C1.0711,6.6047 1.1081,6.6007 1.1461,6.5917 L1.4161,6.5237 C3.6931,5.9237 5.0001,4.8937 5.0001,3.6967 C5.0001,2.4487 3.6011,1.3947 1.1631,0.8057" id="Fill-7" fill="#FFFFFF" mask="url(#mask-4)"></path>
            </g>
            <path d="M24.2744,25.0088 L22.3394,24.3658 C22.0864,24.2828 21.8124,24.4198 21.7274,24.6738 C21.6434,24.9278 21.7814,25.2018 22.0354,25.2858 L22.4404,25.4208 C20.6804,26.0358 19.6894,26.9508 19.6894,27.9928 C19.6894,29.2418 21.0874,30.2948 23.5264,30.8838 C23.5644,30.8938 23.6024,30.8978 23.6404,30.8978 C23.8584,30.8978 24.0564,30.7488 24.1104,30.5278 C24.1724,30.2678 24.0134,30.0058 23.7534,29.9438 C21.9024,29.4958 20.6574,28.7118 20.6574,27.9928 C20.6574,27.3858 21.5304,26.7378 22.9264,26.2788 L22.5104,26.8448 C22.3524,27.0608 22.3984,27.3638 22.6144,27.5218 C22.7004,27.5848 22.8004,27.6158 22.9004,27.6158 C23.0484,27.6158 23.1964,27.5478 23.2914,27.4178 L24.5124,25.7548 C24.6044,25.6298 24.6304,25.4688 24.5844,25.3208 C24.5364,25.1738 24.4214,25.0578 24.2744,25.0088" id="Fill-10" fill="#FFFFFF"></path>
            <g id="Group-14" transform="translate(24.000000, 31.000000)">
                <mask id="mask-6" fill="white">
                    <use xlink:href="#path-5"></use>
                </mask>
                <g id="Clip-13"></g>
                <path d="M6.2344,0.5791 C5.9794,0.5161 5.7134,0.6761 5.6494,0.9361 C5.2024,2.7881 4.4194,4.0311 3.7004,4.0311 C3.0084,4.0311 2.2674,2.9081 1.8094,1.1711 L1.7464,0.9201 C1.6834,0.6601 1.4204,0.4971 1.1614,0.5631 C0.9014,0.6271 0.7424,0.8891 0.8054,1.1481 L0.8734,1.4161 C1.4724,3.6931 2.5034,5.0001 3.7004,5.0001 C4.9484,5.0001 6.0024,3.6011 6.5904,1.1631 C6.6544,0.9031 6.4944,0.6411 6.2344,0.5791" id="Fill-12" fill="#FFFFFF" mask="url(#mask-6)"></path>
            </g>
            <path d="M31.3096,21.7275 C31.0566,21.6445 30.7816,21.7815 30.6976,22.0355 L30.5626,22.4405 C29.9466,20.6805 29.0316,19.6895 27.9896,19.6895 C26.7416,19.6895 25.6876,21.0875 25.0986,23.5265 C25.0366,23.7865 25.1956,24.0475 25.4556,24.1105 C25.7116,24.1755 25.9776,24.0135 26.0396,23.7525 C26.4876,21.9025 27.2706,20.6575 27.9896,20.6575 C28.5976,20.6575 29.2456,21.5315 29.7046,22.9265 L29.1376,22.5105 C28.9206,22.3525 28.6186,22.3995 28.4606,22.6145 C28.3016,22.8305 28.3486,23.1325 28.5646,23.2905 L30.2276,24.5125 C30.3116,24.5745 30.4136,24.6065 30.5146,24.6065 C30.5636,24.6065 30.6136,24.5985 30.6616,24.5835 C30.8086,24.5365 30.9256,24.4215 30.9736,24.2745 L31.6166,22.3395 C31.7006,22.0855 31.5626,21.8125 31.3096,21.7275" id="Fill-15" fill="#FFFFFF"></path>
        </g>
    </g>
</svg>