<?xml version="1.0" encoding="UTF-8"?>
<svg width="38px" height="38px" viewBox="0 0 38 38" version="1.1" xmlns="http://www.w3.org/2000/svg" xmlns:xlink="http://www.w3.org/1999/xlink">
    <!-- Generator: Sketch 50.2 (55047) - http://www.bohemiancoding.com/sketch -->
    <title>a6-3</title>
    <desc>Created with Sketch.</desc>
    <defs>
        <polygon id="path-1" points="0 0.000400494635 25.1594101 0.000400494635 25.1594101 36 0 36"></polygon>
    </defs>
    <g id="a6-3" stroke="none" stroke-width="1" fill="none" fill-rule="evenodd">
        <g id="Group-11" transform="translate(1.000000, 1.000000)">
            <path d="M27.0947,28.7461 C27.0947,28.9421 27.1257,29.1051 27.1897,29.2341 C27.3067,29.4721 27.5197,29.5911 27.8287,29.5911 C28.0187,29.5911 28.1847,29.5251 28.3247,29.3951 C28.4657,29.2661 28.5367,29.0781 28.5367,28.8341 C28.5367,28.5111 28.4067,28.2941 28.1447,28.1851 C27.9947,28.1241 27.7607,28.0941 27.4407,28.0941 L27.4407,27.4011 C27.7537,27.3971 27.9727,27.3671 28.0967,27.3101 C28.3107,27.2151 28.4177,27.0231 28.4177,26.7331 C28.4177,26.5461 28.3637,26.3921 28.2537,26.2751 C28.1447,26.1571 27.9907,26.0991 27.7917,26.0991 C27.5637,26.0991 27.3967,26.1711 27.2897,26.3161 C27.1827,26.4611 27.1307,26.6541 27.1357,26.8961 L26.2327,26.8961 C26.2407,26.6511 26.2837,26.4201 26.3587,26.2001 C26.4377,26.0081 26.5617,25.8301 26.7317,25.6681 C26.8577,25.5531 27.0077,25.4641 27.1817,25.4031 C27.3557,25.3421 27.5697,25.3111 27.8227,25.3111 C28.2927,25.3111 28.6717,25.4331 28.9597,25.6761 C29.2477,25.9191 29.3917,26.2451 29.3917,26.6551 C29.3917,26.9451 29.3057,27.1891 29.1347,27.3881 C29.0257,27.5131 28.9117,27.5981 28.7947,27.6421 C28.8827,27.6421 29.0097,27.7191 29.1747,27.8701 C29.4217,28.0991 29.5447,28.4111 29.5447,28.8071 C29.5447,29.2231 29.4007,29.5891 29.1127,29.9041 C28.8237,30.2211 28.3977,30.3781 27.8327,30.3781 C27.1367,30.3781 26.6537,30.1501 26.3817,29.6961 C26.2397,29.4541 26.1597,29.1371 26.1447,28.7461 L27.0947,28.7461 Z" id="Fill-2" fill="#FFFFFF"></path>
            <path d="M23.6406,30.6729 C23.6026,30.6729 23.5646,30.6679 23.5266,30.6589 C21.0876,30.0699 19.6896,29.0169 19.6896,27.7679 C19.6896,26.5709 20.9946,25.5409 23.2726,24.9419 L23.5406,24.8729 C23.7986,24.8099 24.0626,24.9699 24.1256,25.2299 C24.1896,25.4889 24.0306,25.7509 23.7696,25.8149 L23.5186,25.8779 C21.7816,26.3359 20.6576,27.0779 20.6576,27.7679 C20.6576,28.4859 21.9026,29.2709 23.7526,29.7179 C24.0136,29.7799 24.1726,30.0419 24.1106,30.3019 C24.0566,30.5239 23.8586,30.6729 23.6406,30.6729" id="Fill-4" fill="#FFFFFF"></path>
            <path d="M36,27.4717 C36,26.2227 34.602,25.1687 32.163,24.5807 C31.909,24.5167 31.643,24.6767 31.579,24.9377 C31.517,25.1977 31.676,25.4587 31.937,25.5217 C33.788,25.9687 35.031,26.7527 35.031,27.4717 C35.031,28.0797 34.158,28.7277 32.763,29.1867 L33.179,28.6187 C33.338,28.4037 33.291,28.1007 33.075,27.9427 C32.859,27.7837 32.557,27.8307 32.398,28.0457 L31.178,29.7097 C31.086,29.8347 31.06,29.9957 31.105,30.1437 C31.153,30.2907 31.269,30.4077 31.415,30.4557 L33.35,31.0977 C33.4,31.1147 33.451,31.1227 33.502,31.1227 C33.705,31.1227 33.895,30.9937 33.962,30.7907 C34.046,30.5367 33.908,30.2627 33.655,30.1787 L33.249,30.0437 C35.008,29.4287 36,28.5137 36,27.4717" id="Fill-6" fill="#FFFFFF"></path>
            <g id="Group-10">
                <mask id="mask-2" fill="white">
                    <use xlink:href="#path-1"></use>
                </mask>
                <g id="Clip-9"></g>
                <path d="M12.1719,14.8921 C12.1719,16.4181 10.9299,17.6611 9.4029,17.6611 C7.8779,17.6611 6.6359,16.4181 6.6359,14.8921 C6.6359,13.3661 7.8779,12.1241 9.4029,12.1241 C10.9299,12.1241 12.1719,13.3661 12.1719,14.8921 M16.3459,16.0411 C16.3459,16.7401 15.7769,17.3081 15.0779,17.3081 C14.3789,17.3081 13.8099,16.7401 13.8099,16.0411 C13.8099,15.3421 14.3789,14.7731 15.0779,14.7731 C15.7769,14.7731 16.3459,15.3421 16.3459,16.0411 M24.8539,6.2601 C24.5869,6.1391 12.4059,2.7911 0.6519,0.0261 C0.5829,0.0081 0.3429,-0.0459 0.1609,0.0911 C0.0579,0.1701 -0.0001,0.2911 -0.0001,0.4311 C-0.0001,0.4661 0.0689,4.0611 0.7639,5.7091 C0.7799,5.7561 0.9409,6.1681 1.3309,6.2771 C1.5669,6.3431 7.1079,7.7871 8.4309,8.1311 L8.0249,9.6911 C7.5649,9.7851 6.3769,10.1161 5.4709,11.1291 C4.3549,12.3761 4.2339,13.6621 4.2289,13.7441 L4.4999,33.2781 C4.4989,33.3491 4.4909,34.9881 5.7509,35.4491 C6.5179,35.7281 8.1609,36.0001 9.6219,36.0001 C10.3849,36.0001 11.0979,35.9271 11.6099,35.7401 C11.6369,35.7301 12.2799,35.4811 12.3629,34.5871 C12.4319,33.8511 12.2889,23.7201 12.2829,23.3001 L12.3499,20.7261 C12.3539,20.5761 12.4749,20.4581 12.6249,20.4581 L14.2249,20.4581 C14.3119,20.4641 16.4249,20.5711 17.9979,18.5451 C18.7599,17.5631 19.0459,16.2081 18.7829,14.8291 C18.5629,13.6701 17.9789,12.6841 17.2049,12.1431 L17.5779,10.5531 L20.8549,11.3491 C21.0639,11.4061 21.5069,11.4231 21.8309,11.1321 C21.8529,11.1121 24.0089,9.1581 25.1489,6.8341 C25.1899,6.6421 25.1149,6.3791 24.8539,6.2601" id="Fill-8" fill="#FFFFFF" mask="url(#mask-2)"></path>
            </g>
        </g>
    </g>
</svg>