<?xml version="1.0" encoding="utf-8"?>
<!-- Generator: Adobe Illustrator 21.1.0, SVG Export Plug-In . SVG Version: 6.00 Build 0)  -->
<svg version="1.1" id="圖層_1" xmlns="http://www.w3.org/2000/svg" xmlns:xlink="http://www.w3.org/1999/xlink" x="0px" y="0px"
	 viewBox="0 0 308 27.9" style="enable-background:new 0 0 308 27.9;" xml:space="preserve">
<style type="text/css">
	.st0{fill:#83B81A;}
	.st1{enable-background:new    ;}
	.st2{fill:#FFFFFF;}
</style>
<title>acer_logo1</title>
<g id="Layer_1">
	<path class="st0" d="M84.5,0.9c-0.3-0.4-0.6-0.7-2.1-0.8C82,0.1,80.8,0,78.7,0c-5.5,0-9.3,1.7-11.2,5c0.5-3.3-2.7-5-9.7-5
		c-8.2,0-13.4,3.3-15.5,10c-0.8,2-0.8,4.1-0.2,6.1h-2c-1.5,0.1-3.5,0.2-4.8,0.2c-3,0-4.9-0.5-5.6-1.5s-0.6-2.6,0.2-5.1
		c1.3-4.1,4.4-5.9,9.4-5.9c1.7,0,3.4,0.1,5.1,0.3l0,0c0.3,0,0.5-0.4,0.5-0.7l-0.1-0.3l-0.2-1.4c-0.1-0.9-0.8-1.4-2-1.6
		S40.6,0,39.4,0h-0.1c-6.5,0-11.1,2.2-13.6,6.4c0.9-4.3-2.1-6.4-9-6.4c-2.8,0-5.5,0.1-8.3,0.3C7.1,0.5,6.3,1,6,1.9L5.4,3.7
		C5.3,4,5.5,4.2,5.9,4.2l0,0c0.3,0,1.5-0.2,3.5-0.3c2.7-0.2,4.6-0.3,5.9-0.3c3.8,0,5.5,1,4.9,2.9c-0.1,0.4-0.5,0.7-0.9,0.8
		c-3.6,0.6-6.5,1-8.6,1.3c-6,0.8-9.5,2.6-10.4,5.6c-1.3,4.1,1.9,6.1,9.6,6.1c3.2,0.1,6.5-0.2,9.7-0.7c1.5-0.3,2.3-0.6,2.6-1.6
		l1.4-4.6c-0.1,4.6,3,6.9,9.6,6.9c2.3,0,4.5-0.1,6.8-0.3c1.3-0.2,2-0.5,2.3-1.5l0.3-1.4c1.4,2.2,4.5,3.3,9.2,3.3
		c5,0,7.9-0.1,8.7-0.4c0.6-0.1,1.1-0.5,1.3-1.1c0-0.1,0-0.2,0.1-0.3l0.6-1.9c0.1-0.3-0.1-0.5-0.5-0.5l-3.2,0.2
		c-2.1,0.1-3.8,0.2-5,0.2c-1.6,0.1-3.2-0.1-4.7-0.5c-1.2-0.4-2-1.6-1.8-2.9l10.1-1.3c4.5-0.6,7.6-2,9.1-4.2L63,19.4
		c-0.1,0.2,0,0.4,0.1,0.5c0.2,0.2,0.4,0.2,0.7,0.2H68c0.5,0,0.9-0.2,1.1-0.7l3.7-12.9c0.5-1.7,2-2.5,4.8-2.5c2.5,0,4.3,0,5.5,0.1
		h0.1c0.4,0,0.7-0.3,0.9-0.6l0.6-1.8C84.7,1.4,84.6,1.1,84.5,0.9z M17.1,16.3c-1.9,0.2-3.7,0.3-5.6,0.3c-4.3,0-6.1-0.9-5.6-2.6
		c0.4-1.2,1.5-2,3.3-2.2l9.7-1.3C18.9,10.5,17.1,16.3,17.1,16.3z M61.8,5.9c-0.4,1.3-2.3,2.2-5.7,2.7L48,9.7L48.2,9
		c0.4-1.7,1.4-3.3,2.8-4.4c1.2-0.8,3.2-1.2,6-1.2C60.7,3.5,62.3,4.3,61.8,5.9z"/>
</g>
<g id="圖層_3">
	<g class="st1">
		<path class="st2" d="M97.9,14.1h-5.8L91.1,17h-1.8L94,3.8h2l4.8,13.2H99L97.9,14.1z M95,6l-2.4,6.7h4.8L95,6z"/>
		<path class="st2" d="M107.3,6.4c2.6,0,4.3,1.3,4.8,3.5h-1.9c-0.4-1.3-1.4-2.1-2.9-2.1c-1.9,0-3.3,1.3-3.3,3.9
			c0,2.6,1.4,3.9,3.3,3.9c1.5,0,2.6-0.7,2.9-2.1h1.9c-0.5,2.1-2.2,3.5-4.8,3.5c-3,0-5.1-2.1-5.1-5.4C102.2,8.5,104.4,6.4,107.3,6.4z
			"/>
		<path class="st2" d="M118.9,17.2c-3,0-5.1-2.1-5.1-5.4c0-3.3,2.1-5.4,5.1-5.4c3,0,5,2.1,5,5c0,0.4,0,0.7-0.1,1h-8.3
			c0.1,2.1,1.6,3.3,3.4,3.3c1.6,0,2.5-0.8,2.9-1.9h1.9C123.2,15.7,121.5,17.2,118.9,17.2z M115.6,11h6.6c0-2-1.5-3.2-3.3-3.2
			C117.2,7.9,115.8,9,115.6,11z"/>
		<path class="st2" d="M127.9,17h-1.7V6.6h1.7v1.7c0.6-1.2,1.7-1.9,3.4-1.9v1.8h-0.5c-1.7,0-2.9,0.7-2.9,3.2V17z"/>
		<path class="st2" d="M137.3,3.8h1.8l2.9,11.2l3.2-11.2h1.9l3,11.2l2.9-11.2h1.9L151.2,17h-1.9l-3.1-10.7L143,17l-1.9,0L137.3,3.8z
			"/>
		<path class="st2" d="M161.4,17.2c-3,0-5.1-2.1-5.1-5.4c0-3.3,2.1-5.4,5.1-5.4c3,0,5,2.1,5,5c0,0.4,0,0.7-0.1,1H158
			c0.1,2.1,1.6,3.3,3.4,3.3c1.6,0,2.5-0.8,2.9-1.9h1.9C165.7,15.7,164,17.2,161.4,17.2z M158,11h6.6c0-2-1.5-3.2-3.3-3.2
			C159.6,7.9,158.2,9,158,11z"/>
		<path class="st2" d="M174.3,6.4c2.8,0,4.9,2.1,4.9,5.3c0,3.2-2.1,5.4-4.9,5.4c-1.9,0-3.2-1-3.9-2.1V17h-1.7V2.9h1.7v5.6
			C171.1,7.4,172.5,6.4,174.3,6.4z M173.9,7.9c-1.9,0-3.5,1.4-3.5,3.9c0,2.5,1.7,3.9,3.5,3.9c1.9,0,3.5-1.4,3.5-3.9
			C177.5,9.3,175.9,7.9,173.9,7.9z"/>
		<path class="st2" d="M190.6,3.8h1.8l-5,13.2h-2l-5-13.2h1.8l4.2,11.4L190.6,3.8z"/>
		<path class="st2" d="M198.6,3.8c3.1,0,4.6,1.7,4.6,3.9c0,1.7-0.9,3.3-3.2,3.8l3.3,5.5h-2.1l-3.2-5.4h-2.1V17h-1.7V3.8H198.6z
			 M198.6,5.2h-2.5v5h2.5c2,0,2.8-1.1,2.8-2.5C201.5,6.2,200.6,5.2,198.6,5.2z"/>
		<path class="st2" d="M215.2,17.1c-2.7,0-4.5-1.5-4.6-3.7h1.8c0.1,1.1,0.9,2.2,2.7,2.2c1.7,0,2.7-0.9,2.7-2.2
			c0-3.6-7.2-1.3-7.2-6.2c0-2.2,1.8-3.7,4.4-3.7c2.5,0,4.2,1.4,4.4,3.4h-1.9c-0.1-0.9-0.9-1.9-2.6-1.9c-1.4,0-2.5,0.7-2.5,2.1
			c0,3.4,7.1,1.3,7.1,6.2C219.6,15.3,218.1,17.1,215.2,17.1z"/>
		<path class="st2" d="M222.5,8h-1.3V6.6h1.3V4h1.7v2.6h2.7V8h-2.7v6.1c0,1,0.4,1.4,1.4,1.4h1.3V17h-1.6c-1.8,0-2.9-0.8-2.9-2.9V8z"
			/>
		<path class="st2" d="M233.4,6.4c1.9,0,3.3,1,3.9,2.1V6.6h1.7V17h-1.7v-1.9c-0.6,1.1-2,2.1-3.9,2.1c-2.8,0-4.9-2.2-4.9-5.4
			C228.4,8.5,230.6,6.4,233.4,6.4z M233.7,7.9c-1.9,0-3.5,1.4-3.5,3.8c0,2.5,1.6,3.9,3.5,3.9c1.9,0,3.5-1.4,3.5-3.9
			C237.2,9.4,235.6,7.9,233.7,7.9z"/>
		<path class="st2" d="M243.6,17h-1.7V6.6h1.7v1.7c0.6-1.2,1.7-1.9,3.4-1.9v1.8h-0.5c-1.7,0-2.9,0.7-2.9,3.2V17z"/>
		<path class="st2" d="M249.4,8H248V6.6h1.3V4h1.7v2.6h2.7V8h-2.7v6.1c0,1,0.4,1.4,1.4,1.4h1.3V17h-1.6c-1.8,0-2.9-0.8-2.9-2.9V8z"
			/>
		<path class="st2" d="M265.3,11.5h-2.5V17H261V3.8h4.3c3.1,0,4.6,1.7,4.6,3.9C269.8,9.6,268.5,11.5,265.3,11.5z M265.3,10
			c2,0,2.8-0.9,2.8-2.4c0-1.5-0.8-2.5-2.8-2.5h-2.5V10H265.3z"/>
		<path class="st2" d="M276.3,6.4c1.9,0,3.3,1,3.9,2.1V6.6h1.7V17h-1.7v-1.9c-0.6,1.1-2,2.1-3.9,2.1c-2.8,0-4.9-2.2-4.9-5.4
			C271.3,8.5,273.5,6.4,276.3,6.4z M276.6,7.9c-1.9,0-3.5,1.4-3.5,3.8c0,2.5,1.6,3.9,3.5,3.9c1.9,0,3.5-1.4,3.5-3.9
			C280.2,9.4,278.5,7.9,276.6,7.9z"/>
		<path class="st2" d="M289.1,6.4c1.9,0,3.3,0.9,3.9,2.1V6.6h1.7v10.6c0,2.9-1.9,4.9-5,4.9c-2.7,0-4.7-1.4-5-3.6h1.7
			c0.4,1.3,1.6,2.1,3.3,2.1c1.8,0,3.2-1.2,3.2-3.4V15c-0.6,1.1-2,2.1-3.9,2.1c-2.8,0-4.9-2.2-4.9-5.4C284.2,8.5,286.3,6.4,289.1,6.4
			z M289.5,7.9c-1.9,0-3.5,1.4-3.5,3.8c0,2.5,1.6,3.9,3.5,3.9c1.9,0,3.5-1.4,3.5-3.9C293,9.4,291.4,7.9,289.5,7.9z"/>
		<path class="st2" d="M302.2,17.2c-3,0-5.1-2.1-5.1-5.4c0-3.3,2.1-5.4,5.1-5.4c3,0,5,2.1,5,5c0,0.4,0,0.7-0.1,1h-8.3
			c0.1,2.1,1.6,3.3,3.4,3.3c1.6,0,2.5-0.8,2.9-1.9h1.9C306.4,15.7,304.8,17.2,302.2,17.2z M298.8,11h6.6c0-2-1.5-3.2-3.3-3.2
			C300.4,7.9,299,9,298.8,11z"/>
	</g>
</g>
<g id="圖層_3_1_">
	<text transform="matrix(1 0 0 1 88.62 -22.0793)" class="st2" style="font-family:'Poppins-Regular'; font-size:19px;">Acer WebVR Start Page</text>
</g>
</svg>
