<svg xmlns="http://www.w3.org/2000/svg" viewBox="0 0 307.99 27.87"><defs><style>.cls-1{fill:#83b81a;}.cls-2{font-size:19px;fill:#fff;font-family:Poppins-Regular, Poppins;}</style></defs><title>acer_logo1</title><g id="Layer_1" data-name="Layer 1"><path class="cls-1" d="M92.5,15.8c-.3-.4-.6-.7-2.1-.8-.4,0-1.6-.1-3.7-.1-5.5,0-9.3,1.7-11.2,5,.5-3.3-2.7-5-9.7-5-8.2,0-13.4,3.3-15.5,10a9.21,9.21,0,0,0-.2,6.1h-2c-1.5.1-3.5.2-4.8.2-3,0-4.9-.5-5.6-1.5s-.6-2.6.2-5.1c1.3-4.1,4.4-5.9,9.4-5.9a48.75,48.75,0,0,1,5.1.3h0c.3,0,.5-.4.5-.7l-.1-.3-.2-1.4c-.1-.9-.8-1.4-2-1.6s-2-.1-3.2-.1h-.1c-6.5,0-11.1,2.2-13.6,6.4.9-4.3-2.1-6.4-9-6.4a77.84,77.84,0,0,0-8.3.3c-1.3.2-2.1.7-2.4,1.6l-.6,1.8c-.1.3.1.5.5.5h0c.3,0,1.5-.2,3.5-.3,2.7-.2,4.6-.3,5.9-.3,3.8,0,5.5,1,4.9,2.9a1.08,1.08,0,0,1-.9.8c-3.6.6-6.5,1-8.6,1.3-6,.8-9.5,2.6-10.4,5.6-1.3,4.1,1.9,6.1,9.6,6.1a53.56,53.56,0,0,0,9.7-.7c1.5-.3,2.3-.6,2.6-1.6l1.4-4.6c-.1,4.6,3,6.9,9.6,6.9a56.56,56.56,0,0,0,6.8-.3c1.3-.2,2-.5,2.3-1.5l.3-1.4c1.4,2.2,4.5,3.3,9.2,3.3,5,0,7.9-.1,8.7-.4a1.84,1.84,0,0,0,1.3-1.1.37.37,0,0,1,.1-.3l.6-1.9c.1-.3-.1-.5-.5-.5l-3.2.2c-2.1.1-3.8.2-5,.2a16,16,0,0,1-4.7-.5,2.58,2.58,0,0,1-1.8-2.9l10.1-1.3c4.5-.6,7.6-2,9.1-4.2L71,34.3a.44.44,0,0,0,.1.5,1,1,0,0,0,.7.2H76a1.06,1.06,0,0,0,1.1-.7l3.7-12.9c.5-1.7,2-2.5,4.8-2.5,2.5,0,4.3,0,5.5.1h.1a1.09,1.09,0,0,0,.9-.6l.6-1.8a1.08,1.08,0,0,0-.2-.8ZM25.1,31.2a39.74,39.74,0,0,1-5.6.3c-4.3,0-6.1-.9-5.6-2.6.4-1.2,1.5-2,3.3-2.2l9.7-1.3-1.8,5.8ZM69.8,20.8q-.6,1.95-5.7,2.7L56,24.6l.2-.7A7.82,7.82,0,0,1,59,19.5q1.8-1.2,6-1.2c3.7.1,5.3.9,4.8,2.5Z" transform="translate(-8.02 -14.9)"/></g><g id="圖層_3" data-name="圖層 3"><text class="cls-2" transform="translate(88.62 17)">Acer WebVR Start Page</text></g></svg>